<svg height="617" viewBox="0 0 803 617" width="803" xmlns="http://www.w3.org/2000/svg"><path d="m184.898 427 62.171-97.769-139.234-88.537-71.904 113.075 115.164 73.231z" fill="#f0f0f0"/><path d="m471.5 599h-154v-31h154zm-152-2h150v-27h-150z" fill="#3f3d56" transform="translate(-198.5 -141.5)"/><g fill="#007bff"><circle cx="254" cy="442" r="10"/><circle cx="226" cy="442" r="10"/><circle cx="198" cy="442" r="10"/><circle cx="170" cy="442" r="10"/><circle cx="142" cy="442" r="10"/></g><path d="m654.5 254.5v-76h38v-37h-186v186h159v-18.18561a25.81441 25.81441 0 0 1 25.81445-25.81439h1.18555v-29z" fill="#f0f0f0" transform="translate(-198.5 -141.5)"/><path d="m538 480h124v26h-124z" fill="#007bff"/><path d="m507 352h182v24h-182z" fill="#f0f0f0"/><path d="m0 615h778v2h-778z" fill="#3f3d56"/><path d="m918.68555 758.5h-227.3711a26.84532 26.84532 0 0 1 -26.81445-26.81445v-422.3711a26.845 26.845 0 0 1 26.81445-26.81445h227.3711a26.845 26.845 0 0 1 26.81445 26.81445v422.3711a26.84532 26.84532 0 0 1 -26.81445 26.81445zm-227.3711-474a24.84271 24.84271 0 0 0 -24.81445 24.81445v422.3711a24.84271 24.84271 0 0 0 24.81445 24.81445h227.3711a24.84271 24.84271 0 0 0 24.81445-24.81445v-422.3711a24.84271 24.84271 0 0 0 -24.81445-24.81445z" fill="#3f3d56" transform="translate(-198.5 -141.5)"/><path d="m778 302.5a6 6 0 1 1 6-6 6.00657 6.00657 0 0 1 -6 6zm0-10a4 4 0 1 0 4 4 4.00427 4.00427 0 0 0 -4-4z" fill="#3f3d56" transform="translate(-198.5 -141.5)"/><path d="m594.5 154h44v2h-44z" fill="#3f3d56"/><path d="m927.5 311.5v80a80.00357 80.00357 0 0 1 -80-80z" fill="#007bff" transform="translate(-198.5 -141.5)"/><path d="m928.5 731.5h-247v-421h247zm-245-2h243v-417h-243z" fill="#3f3d56" transform="translate(-198.5 -141.5)"/><circle cx="671" cy="218" opacity=".1" r="27"/><circle cx="667" cy="221" fill="#007bff" r="27"/><path d="m494 186h38v14h-38z" fill="#3f3d56"/><path d="m515 319h38v14h-38z" fill="#3f3d56"/><path d="m897.5 512.5h-184v-26h184zm-182-2h180v-22h-180z" fill="#3f3d56" transform="translate(-198.5 -141.5)"/><path d="m507 428h182v24h-182z" fill="#f0f0f0"/><path d="m515 395h38v14h-38z" fill="#3f3d56"/><path d="m897.5 588.5h-184v-26h184zm-182-2h180v-22h-180z" fill="#3f3d56" transform="translate(-198.5 -141.5)"/><path d="m868.5 641.5h-126v-28h126zm-124-2h122v-24h-122z" fill="#3f3d56" transform="translate(-198.5 -141.5)"/><path d="m892.5 502.5a10.00094 10.00094 0 0 1 -17.71 6.37l-.01-.01a9.99931 9.99931 0 1 1 17.43-8.73.00979.00979 0 0 0 .01.01 10.22724 10.22724 0 0 1 .28 2.36z" fill="#007bff" transform="translate(-198.5 -141.5)"/><path d="m892.5 502.5a10.00094 10.00094 0 0 1 -17.71 6.37l-.01-.01a10.22763 10.22763 0 0 1 -.28-2.36 10.00094 10.00094 0 0 1 17.71-6.37.00979.00979 0 0 0 .01.01 10.22724 10.22724 0 0 1 .28 2.36z" opacity=".1" transform="translate(-198.5 -141.5)"/><circle cx="688" cy="367" fill="#007bff" r="10"/><path d="m892.5 578.5a10.00094 10.00094 0 0 1 -17.71 6.37l-.01-.01a9.99931 9.99931 0 1 1 17.43-8.73.00979.00979 0 0 0 .01.01 10.22724 10.22724 0 0 1 .28 2.36z" fill="#007bff" transform="translate(-198.5 -141.5)"/><path d="m892.5 578.5a10.00094 10.00094 0 0 1 -17.71 6.37l-.01-.01a10.22763 10.22763 0 0 1 -.28-2.36 10.00094 10.00094 0 0 1 17.71-6.37.00979.00979 0 0 0 .01.01 10.22724 10.22724 0 0 1 .28 2.36z" opacity=".1" transform="translate(-198.5 -141.5)"/><circle cx="688" cy="443" fill="#007bff" r="10"/><path d="m468 48h52v52h-52z" fill="#f0f0f0"/><path d="m869.5 227.5a12 12 0 1 1 12-12 12.01343 12.01343 0 0 1 -12 12zm0-22a10 10 0 1 0 10 10 10.01146 10.01146 0 0 0 -10-10z" fill="#3f3d56" transform="translate(-198.5 -141.5)"/><path d="m605.5 394.5h-26v-26h26zm-24-2h22v-22h-22z" fill="#3f3d56" transform="translate(-198.5 -141.5)"/><path d="m1001.5 588.5h-26v-26h26zm-24-2h22v-22h-22z" fill="#3f3d56" transform="translate(-198.5 -141.5)"/><path d="m488.50263 414.16645 4.4618 2.40312 15.18222 8.18251 24.51011 13.20583 14.2838-26.50149a21.52495 21.52495 0 0 0 -8.74393-29.189 28.59037 28.59037 0 0 0 -33.38144 4.5292l-.00749.00749a28.62268 28.62268 0 0 0 -5.37511 7.07455z" fill="#2f2e41" transform="translate(-198.5 -141.5)"/><path d="m356.9 542.937-2.994 32.939-11.23 1.497-7.486-37.431z" fill="#ffb8b8"/><path d="m538.18164 718.87346s14.22395-7.48629 17.21847-1.49726c0 0-2.24589 17.9671 6.73766 20.213s12.72669 17.96709 0 19.46435-20.96161-2.99451-25.45339-2.99451 0-15.72121 0-15.72121z" fill="#2f2e41" transform="translate(-198.5 -141.5)"/><path d="m266.316 542.937 2.995 32.939 11.229 1.497 7.486-37.431z" fill="#ffb8b8"/><path d="m482.03446 718.87346s-14.224-7.48629-17.21846-1.49726c0 0 2.24588 17.9671-6.73767 20.213s-12.72669 17.96709 0 19.46435 20.96167-2.99455 25.45339-2.99455 0-15.72121 0-15.72121z" fill="#2f2e41" transform="translate(-198.5 -141.5)"/><circle cx="327.70358" cy="259.20612" fill="#ffb8b8" r="19.46436"/><path d="m464.06737 438.8862 15.72121 24.7048 18.71572-1.49726 30.69379 2.24589s2.89719-5.79438 5.26289-11.43158a44.28506 44.28506 0 0 0 2.972-8.78141c.74863-5.2404-9.73218-10.4808-9.73218-10.4808s-.41178-.07489-1.10046-.23957c-.9133-.21709-2.32082-.57646-3.86295-1.10051-3.48114-1.1828-7.666-3.18912-8.51191-6.14621-1.49726-5.24041 9.73218-12.7267 9.73218-12.7267l-13.47532-12.72669s-11.97057 16.627-26.50889 20.41508a23.155 23.155 0 0 1 -2.56044.524c-.04487.00749-.08224.015-.12721.02248-15.72118 2.2459-17.21843 17.21848-17.21843 17.21848z" fill="#ffb8b8" transform="translate(-198.5 -141.5)"/><path d="m472.30229 432.14854-8.23492 6.73766s-6.73767 32.19105-4.49178 41.1746-.74863 17.21846-.74863 18.71572-6.73766 57.64448-6.73766 57.64448-13.47532 29.94516.74863 26.95064 8.98355-32.93967 8.98355-32.93967l17.21847-52.404v-44.16919z" fill="#ffb8b8" transform="translate(-198.5 -141.5)"/><path d="m531.444 438.13757 5.989 4.49177 2.99452 62.88484 22.45887 53.90129s16.46984 26.202 5.989 26.95065-17.21839-26.95065-17.21839-26.95065l-20.213-51.6554-2.99452-50.15814z" fill="#ffb8b8" transform="translate(-198.5 -141.5)"/><path d="m494.01253 442.62934s14.97258 10.48081 38.92871 6.73767c0 0 6.73766 13.47532 2.99451 20.96161s4.49178 25.45339 5.989 27.69927 18.71572 48.66089 24.70475 98.819 22.45888 84.59508 8.23492 89.08685-43.42048 9.73218-46.415 5.24041-7.48629-116.03751-7.48629-116.03751l-8.23492 42.67186s11.22944 72.617 2.99452 74.11427-59.89032-2.99451-58.39307-11.97806 16.46984-56.14718 16.46984-56.14718-.74863-94.32726 14.224-112.29435c0 0 5.989-9.73218-2.24589-22.45888s-7.48629-32.93967-7.48629-32.93967 5.98903.00004 15.72121-13.47529z" fill="#2f2e41" transform="translate(-198.5 -141.5)"/><path d="m282.913 280.145 12.6 27.722 2.994-1.497-13.034-26.749z" fill="#2f2e41"/><path d="m522.73742 432.30572 9.45519 20.80443 2.26837-.20214-.77111-3.541-7.0895-15.96078c-.9133-.21709-2.32082-.57646-3.86295-1.10051z" fill="#2f2e41" transform="translate(-198.5 -141.5)"/><path d="m492.96443 416.56957a12.323 12.323 0 0 0 22.60865 2.201c-9.47017-12.38235-1.34757-20.16057 14.0368-26.04483a12.31224 12.31224 0 0 0 -1.32509-13.655 28.687 28.687 0 0 0 -23.4696 7.72586l-.00749.00749-10.92987 20.27291a12.26371 12.26371 0 0 0 -.9134 9.49257z" fill="#2f2e41" transform="translate(-198.5 -141.5)"/><ellipse cx="316.09983" cy="261.45201" fill="#ffb8b8" rx="2.6202" ry="4.49177"/><path d="m522.408 395.6229 22.50383 10.19632 4.125-9.10331a21.56313 21.56313 0 0 0 -4.34208-9.08087l-15.48909-7.01465z" fill="#2f2e41" transform="translate(-198.5 -141.5)"/><circle cx="378" cy="445" fill="#007bff" r="10"/><circle cx="56.95651" cy="507.91124" fill="#ff6584" r="6.53537"/><path d="m87.9751 541.97266h2v74.41113h-2z" fill="#3f3d56"/><circle cx="88.97529" cy="541.97239" fill="#3f3d56" r="10.52282"/><path d="m287.47529 729.33366s-1.50326-32.33193-32.32009-28.57378" fill="#3f3d56" transform="translate(-198.5 -141.5)"/></svg>